<svg xmlns="http://www.w3.org/2000/svg" width="1500" height="1200" viewBox="0 0 1500 1200">
<rect width="1500" height="1200" fill="#f0eeea"/>
<g font-family="Helvetica Neue, Arial, sans-serif">
<text x="58" y="65" font-size="34" font-weight="700" fill="#252b2c">sik / un monograma, seis colores</text>
<text x="58" y="100" font-size="18" fill="#6a706f">La misma forma, con alternativas al coral.</text>
<rect x="48" y="132" width="456" height="494" rx="22" fill="#fff"/>
<svg xmlns="http://www.w3.org/2000/svg" viewBox="0 0 1024 1024" x="128" y="134" width="296" height="296">
  <title>Sik — Cobalto</title>
  <defs>
    <linearGradient id="surface0large" x2="0.25" y2="1">
      <stop stop-color="#5489ff"/><stop offset="1" stop-color="#2450ce"/>
    </linearGradient>
  </defs>
  <rect x="100" y="100" width="824" height="824" rx="190" fill="url(#surface0large)"/>
  <rect x="102" y="102" width="820" height="820" rx="188" fill="none" stroke="#fff" stroke-opacity=".2" stroke-width="4"/>
  <path d="M710 298H418L290 426V468L586 608H314V726H606L734 598V556L438 416H710Z" fill="#f5f8ff"/>
</svg>

<text x="76" y="453" font-size="25" font-weight="600" fill="#252b2c">01  Cobalto</text>
<rect x="70" y="475" width="412" height="127" rx="13" fill="#252a2d"/>
<svg xmlns="http://www.w3.org/2000/svg" viewBox="0 0 1024 1024" x="107.0" y="491.0" width="64" height="64">
  <title>Sik — Cobalto</title>
  <defs>
    <linearGradient id="surface0small0" x2="0.25" y2="1">
      <stop stop-color="#5489ff"/><stop offset="1" stop-color="#2450ce"/>
    </linearGradient>
  </defs>
  <rect x="100" y="100" width="824" height="824" rx="190" fill="url(#surface0small0)"/>
  <rect x="102" y="102" width="820" height="820" rx="188" fill="none" stroke="#fff" stroke-opacity=".2" stroke-width="4"/>
  <path d="M710 298H418L290 426V468L586 608H314V726H606L734 598V556L438 416H710Z" fill="#f5f8ff"/>
</svg>

<text x="139" y="581" text-anchor="middle" font-size="13" fill="#b5bfc0">64 px</text>
<svg xmlns="http://www.w3.org/2000/svg" viewBox="0 0 1024 1024" x="260.0" y="507.0" width="32" height="32">
  <title>Sik — Cobalto</title>
  <defs>
    <linearGradient id="surface0small1" x2="0.25" y2="1">
      <stop stop-color="#5489ff"/><stop offset="1" stop-color="#2450ce"/>
    </linearGradient>
  </defs>
  <rect x="100" y="100" width="824" height="824" rx="190" fill="url(#surface0small1)"/>
  <rect x="102" y="102" width="820" height="820" rx="188" fill="none" stroke="#fff" stroke-opacity=".2" stroke-width="4"/>
  <path d="M710 298H418L290 426V468L586 608H314V726H606L734 598V556L438 416H710Z" fill="#f5f8ff"/>
</svg>

<text x="276" y="581" text-anchor="middle" font-size="13" fill="#b5bfc0">32 px</text>
<svg xmlns="http://www.w3.org/2000/svg" viewBox="0 0 1024 1024" x="405.0" y="515.0" width="16" height="16">
  <title>Sik — Cobalto</title>
  <defs>
    <linearGradient id="surface0small2" x2="0.25" y2="1">
      <stop stop-color="#5489ff"/><stop offset="1" stop-color="#2450ce"/>
    </linearGradient>
  </defs>
  <rect x="100" y="100" width="824" height="824" rx="190" fill="url(#surface0small2)"/>
  <rect x="102" y="102" width="820" height="820" rx="188" fill="none" stroke="#fff" stroke-opacity=".2" stroke-width="4"/>
  <path d="M710 298H418L290 426V468L586 608H314V726H606L734 598V556L438 416H710Z" fill="#f5f8ff"/>
</svg>

<text x="413" y="581" text-anchor="middle" font-size="13" fill="#b5bfc0">16 px</text>
<rect x="520" y="132" width="456" height="494" rx="22" fill="#fff"/>
<svg xmlns="http://www.w3.org/2000/svg" viewBox="0 0 1024 1024" x="600" y="134" width="296" height="296">
  <title>Sik — Violeta</title>
  <defs>
    <linearGradient id="surface1large" x2="0.25" y2="1">
      <stop stop-color="#9c83f5"/><stop offset="1" stop-color="#6242bc"/>
    </linearGradient>
  </defs>
  <rect x="100" y="100" width="824" height="824" rx="190" fill="url(#surface1large)"/>
  <rect x="102" y="102" width="820" height="820" rx="188" fill="none" stroke="#fff" stroke-opacity=".2" stroke-width="4"/>
  <path d="M710 298H418L290 426V468L586 608H314V726H606L734 598V556L438 416H710Z" fill="#faf6ff"/>
</svg>

<text x="548" y="453" font-size="25" font-weight="600" fill="#252b2c">02  Violeta</text>
<rect x="542" y="475" width="412" height="127" rx="13" fill="#252a2d"/>
<svg xmlns="http://www.w3.org/2000/svg" viewBox="0 0 1024 1024" x="579.0" y="491.0" width="64" height="64">
  <title>Sik — Violeta</title>
  <defs>
    <linearGradient id="surface1small0" x2="0.25" y2="1">
      <stop stop-color="#9c83f5"/><stop offset="1" stop-color="#6242bc"/>
    </linearGradient>
  </defs>
  <rect x="100" y="100" width="824" height="824" rx="190" fill="url(#surface1small0)"/>
  <rect x="102" y="102" width="820" height="820" rx="188" fill="none" stroke="#fff" stroke-opacity=".2" stroke-width="4"/>
  <path d="M710 298H418L290 426V468L586 608H314V726H606L734 598V556L438 416H710Z" fill="#faf6ff"/>
</svg>

<text x="611" y="581" text-anchor="middle" font-size="13" fill="#b5bfc0">64 px</text>
<svg xmlns="http://www.w3.org/2000/svg" viewBox="0 0 1024 1024" x="732.0" y="507.0" width="32" height="32">
  <title>Sik — Violeta</title>
  <defs>
    <linearGradient id="surface1small1" x2="0.25" y2="1">
      <stop stop-color="#9c83f5"/><stop offset="1" stop-color="#6242bc"/>
    </linearGradient>
  </defs>
  <rect x="100" y="100" width="824" height="824" rx="190" fill="url(#surface1small1)"/>
  <rect x="102" y="102" width="820" height="820" rx="188" fill="none" stroke="#fff" stroke-opacity=".2" stroke-width="4"/>
  <path d="M710 298H418L290 426V468L586 608H314V726H606L734 598V556L438 416H710Z" fill="#faf6ff"/>
</svg>

<text x="748" y="581" text-anchor="middle" font-size="13" fill="#b5bfc0">32 px</text>
<svg xmlns="http://www.w3.org/2000/svg" viewBox="0 0 1024 1024" x="877.0" y="515.0" width="16" height="16">
  <title>Sik — Violeta</title>
  <defs>
    <linearGradient id="surface1small2" x2="0.25" y2="1">
      <stop stop-color="#9c83f5"/><stop offset="1" stop-color="#6242bc"/>
    </linearGradient>
  </defs>
  <rect x="100" y="100" width="824" height="824" rx="190" fill="url(#surface1small2)"/>
  <rect x="102" y="102" width="820" height="820" rx="188" fill="none" stroke="#fff" stroke-opacity=".2" stroke-width="4"/>
  <path d="M710 298H418L290 426V468L586 608H314V726H606L734 598V556L438 416H710Z" fill="#faf6ff"/>
</svg>

<text x="885" y="581" text-anchor="middle" font-size="13" fill="#b5bfc0">16 px</text>
<rect x="992" y="132" width="456" height="494" rx="22" fill="#fff"/>
<svg xmlns="http://www.w3.org/2000/svg" viewBox="0 0 1024 1024" x="1072" y="134" width="296" height="296">
  <title>Sik — Petróleo y menta</title>
  <defs>
    <linearGradient id="surface2large" x2="0.25" y2="1">
      <stop stop-color="#244c50"/><stop offset="1" stop-color="#102f34"/>
    </linearGradient>
  </defs>
  <rect x="100" y="100" width="824" height="824" rx="190" fill="url(#surface2large)"/>
  <rect x="102" y="102" width="820" height="820" rx="188" fill="none" stroke="#fff" stroke-opacity=".2" stroke-width="4"/>
  <path d="M710 298H418L290 426V468L586 608H314V726H606L734 598V556L438 416H710Z" fill="#a5f0d1"/>
</svg>

<text x="1020" y="453" font-size="25" font-weight="600" fill="#252b2c">03  Petróleo y menta</text>
<rect x="1014" y="475" width="412" height="127" rx="13" fill="#252a2d"/>
<svg xmlns="http://www.w3.org/2000/svg" viewBox="0 0 1024 1024" x="1051.0" y="491.0" width="64" height="64">
  <title>Sik — Petróleo y menta</title>
  <defs>
    <linearGradient id="surface2small0" x2="0.25" y2="1">
      <stop stop-color="#244c50"/><stop offset="1" stop-color="#102f34"/>
    </linearGradient>
  </defs>
  <rect x="100" y="100" width="824" height="824" rx="190" fill="url(#surface2small0)"/>
  <rect x="102" y="102" width="820" height="820" rx="188" fill="none" stroke="#fff" stroke-opacity=".2" stroke-width="4"/>
  <path d="M710 298H418L290 426V468L586 608H314V726H606L734 598V556L438 416H710Z" fill="#a5f0d1"/>
</svg>

<text x="1083" y="581" text-anchor="middle" font-size="13" fill="#b5bfc0">64 px</text>
<svg xmlns="http://www.w3.org/2000/svg" viewBox="0 0 1024 1024" x="1204.0" y="507.0" width="32" height="32">
  <title>Sik — Petróleo y menta</title>
  <defs>
    <linearGradient id="surface2small1" x2="0.25" y2="1">
      <stop stop-color="#244c50"/><stop offset="1" stop-color="#102f34"/>
    </linearGradient>
  </defs>
  <rect x="100" y="100" width="824" height="824" rx="190" fill="url(#surface2small1)"/>
  <rect x="102" y="102" width="820" height="820" rx="188" fill="none" stroke="#fff" stroke-opacity=".2" stroke-width="4"/>
  <path d="M710 298H418L290 426V468L586 608H314V726H606L734 598V556L438 416H710Z" fill="#a5f0d1"/>
</svg>

<text x="1220" y="581" text-anchor="middle" font-size="13" fill="#b5bfc0">32 px</text>
<svg xmlns="http://www.w3.org/2000/svg" viewBox="0 0 1024 1024" x="1349.0" y="515.0" width="16" height="16">
  <title>Sik — Petróleo y menta</title>
  <defs>
    <linearGradient id="surface2small2" x2="0.25" y2="1">
      <stop stop-color="#244c50"/><stop offset="1" stop-color="#102f34"/>
    </linearGradient>
  </defs>
  <rect x="100" y="100" width="824" height="824" rx="190" fill="url(#surface2small2)"/>
  <rect x="102" y="102" width="820" height="820" rx="188" fill="none" stroke="#fff" stroke-opacity=".2" stroke-width="4"/>
  <path d="M710 298H418L290 426V468L586 608H314V726H606L734 598V556L438 416H710Z" fill="#a5f0d1"/>
</svg>

<text x="1357" y="581" text-anchor="middle" font-size="13" fill="#b5bfc0">16 px</text>
<rect x="48" y="646" width="456" height="494" rx="22" fill="#fff"/>
<svg xmlns="http://www.w3.org/2000/svg" viewBox="0 0 1024 1024" x="128" y="648" width="296" height="296">
  <title>Sik — Grafito</title>
  <defs>
    <linearGradient id="surface3large" x2="0.25" y2="1">
      <stop stop-color="#414449"/><stop offset="1" stop-color="#202226"/>
    </linearGradient>
  </defs>
  <rect x="100" y="100" width="824" height="824" rx="190" fill="url(#surface3large)"/>
  <rect x="102" y="102" width="820" height="820" rx="188" fill="none" stroke="#fff" stroke-opacity=".2" stroke-width="4"/>
  <path d="M710 298H418L290 426V468L586 608H314V726H606L734 598V556L438 416H710Z" fill="#f5f3ec"/>
</svg>

<text x="76" y="967" font-size="25" font-weight="600" fill="#252b2c">04  Grafito</text>
<rect x="70" y="989" width="412" height="127" rx="13" fill="#252a2d"/>
<svg xmlns="http://www.w3.org/2000/svg" viewBox="0 0 1024 1024" x="107.0" y="1005.0" width="64" height="64">
  <title>Sik — Grafito</title>
  <defs>
    <linearGradient id="surface3small0" x2="0.25" y2="1">
      <stop stop-color="#414449"/><stop offset="1" stop-color="#202226"/>
    </linearGradient>
  </defs>
  <rect x="100" y="100" width="824" height="824" rx="190" fill="url(#surface3small0)"/>
  <rect x="102" y="102" width="820" height="820" rx="188" fill="none" stroke="#fff" stroke-opacity=".2" stroke-width="4"/>
  <path d="M710 298H418L290 426V468L586 608H314V726H606L734 598V556L438 416H710Z" fill="#f5f3ec"/>
</svg>

<text x="139" y="1095" text-anchor="middle" font-size="13" fill="#b5bfc0">64 px</text>
<svg xmlns="http://www.w3.org/2000/svg" viewBox="0 0 1024 1024" x="260.0" y="1021.0" width="32" height="32">
  <title>Sik — Grafito</title>
  <defs>
    <linearGradient id="surface3small1" x2="0.25" y2="1">
      <stop stop-color="#414449"/><stop offset="1" stop-color="#202226"/>
    </linearGradient>
  </defs>
  <rect x="100" y="100" width="824" height="824" rx="190" fill="url(#surface3small1)"/>
  <rect x="102" y="102" width="820" height="820" rx="188" fill="none" stroke="#fff" stroke-opacity=".2" stroke-width="4"/>
  <path d="M710 298H418L290 426V468L586 608H314V726H606L734 598V556L438 416H710Z" fill="#f5f3ec"/>
</svg>

<text x="276" y="1095" text-anchor="middle" font-size="13" fill="#b5bfc0">32 px</text>
<svg xmlns="http://www.w3.org/2000/svg" viewBox="0 0 1024 1024" x="405.0" y="1029.0" width="16" height="16">
  <title>Sik — Grafito</title>
  <defs>
    <linearGradient id="surface3small2" x2="0.25" y2="1">
      <stop stop-color="#414449"/><stop offset="1" stop-color="#202226"/>
    </linearGradient>
  </defs>
  <rect x="100" y="100" width="824" height="824" rx="190" fill="url(#surface3small2)"/>
  <rect x="102" y="102" width="820" height="820" rx="188" fill="none" stroke="#fff" stroke-opacity=".2" stroke-width="4"/>
  <path d="M710 298H418L290 426V468L586 608H314V726H606L734 598V556L438 416H710Z" fill="#f5f3ec"/>
</svg>

<text x="413" y="1095" text-anchor="middle" font-size="13" fill="#b5bfc0">16 px</text>
<rect x="520" y="646" width="456" height="494" rx="22" fill="#fff"/>
<svg xmlns="http://www.w3.org/2000/svg" viewBox="0 0 1024 1024" x="600" y="648" width="296" height="296">
  <title>Sik — Hueso</title>
  <defs>
    <linearGradient id="surface4large" x2="0.25" y2="1">
      <stop stop-color="#faf6ed"/><stop offset="1" stop-color="#ddd5c6"/>
    </linearGradient>
  </defs>
  <rect x="100" y="100" width="824" height="824" rx="190" fill="url(#surface4large)"/>
  <rect x="102" y="102" width="820" height="820" rx="188" fill="none" stroke="#fff" stroke-opacity=".2" stroke-width="4"/>
  <path d="M710 298H418L290 426V468L586 608H314V726H606L734 598V556L438 416H710Z" fill="#2e3437"/>
</svg>

<text x="548" y="967" font-size="25" font-weight="600" fill="#252b2c">05  Hueso</text>
<rect x="542" y="989" width="412" height="127" rx="13" fill="#252a2d"/>
<svg xmlns="http://www.w3.org/2000/svg" viewBox="0 0 1024 1024" x="579.0" y="1005.0" width="64" height="64">
  <title>Sik — Hueso</title>
  <defs>
    <linearGradient id="surface4small0" x2="0.25" y2="1">
      <stop stop-color="#faf6ed"/><stop offset="1" stop-color="#ddd5c6"/>
    </linearGradient>
  </defs>
  <rect x="100" y="100" width="824" height="824" rx="190" fill="url(#surface4small0)"/>
  <rect x="102" y="102" width="820" height="820" rx="188" fill="none" stroke="#fff" stroke-opacity=".2" stroke-width="4"/>
  <path d="M710 298H418L290 426V468L586 608H314V726H606L734 598V556L438 416H710Z" fill="#2e3437"/>
</svg>

<text x="611" y="1095" text-anchor="middle" font-size="13" fill="#b5bfc0">64 px</text>
<svg xmlns="http://www.w3.org/2000/svg" viewBox="0 0 1024 1024" x="732.0" y="1021.0" width="32" height="32">
  <title>Sik — Hueso</title>
  <defs>
    <linearGradient id="surface4small1" x2="0.25" y2="1">
      <stop stop-color="#faf6ed"/><stop offset="1" stop-color="#ddd5c6"/>
    </linearGradient>
  </defs>
  <rect x="100" y="100" width="824" height="824" rx="190" fill="url(#surface4small1)"/>
  <rect x="102" y="102" width="820" height="820" rx="188" fill="none" stroke="#fff" stroke-opacity=".2" stroke-width="4"/>
  <path d="M710 298H418L290 426V468L586 608H314V726H606L734 598V556L438 416H710Z" fill="#2e3437"/>
</svg>

<text x="748" y="1095" text-anchor="middle" font-size="13" fill="#b5bfc0">32 px</text>
<svg xmlns="http://www.w3.org/2000/svg" viewBox="0 0 1024 1024" x="877.0" y="1029.0" width="16" height="16">
  <title>Sik — Hueso</title>
  <defs>
    <linearGradient id="surface4small2" x2="0.25" y2="1">
      <stop stop-color="#faf6ed"/><stop offset="1" stop-color="#ddd5c6"/>
    </linearGradient>
  </defs>
  <rect x="100" y="100" width="824" height="824" rx="190" fill="url(#surface4small2)"/>
  <rect x="102" y="102" width="820" height="820" rx="188" fill="none" stroke="#fff" stroke-opacity=".2" stroke-width="4"/>
  <path d="M710 298H418L290 426V468L586 608H314V726H606L734 598V556L438 416H710Z" fill="#2e3437"/>
</svg>

<text x="885" y="1095" text-anchor="middle" font-size="13" fill="#b5bfc0">16 px</text>
<rect x="992" y="646" width="456" height="494" rx="22" fill="#fff"/>
<svg xmlns="http://www.w3.org/2000/svg" viewBox="0 0 1024 1024" x="1072" y="648" width="296" height="296">
  <title>Sik — Cereza</title>
  <defs>
    <linearGradient id="surface5large" x2="0.25" y2="1">
      <stop stop-color="#d85370"/><stop offset="1" stop-color="#942440"/>
    </linearGradient>
  </defs>
  <rect x="100" y="100" width="824" height="824" rx="190" fill="url(#surface5large)"/>
  <rect x="102" y="102" width="820" height="820" rx="188" fill="none" stroke="#fff" stroke-opacity=".2" stroke-width="4"/>
  <path d="M710 298H418L290 426V468L586 608H314V726H606L734 598V556L438 416H710Z" fill="#fff2ec"/>
</svg>

<text x="1020" y="967" font-size="25" font-weight="600" fill="#252b2c">06  Cereza</text>
<rect x="1014" y="989" width="412" height="127" rx="13" fill="#252a2d"/>
<svg xmlns="http://www.w3.org/2000/svg" viewBox="0 0 1024 1024" x="1051.0" y="1005.0" width="64" height="64">
  <title>Sik — Cereza</title>
  <defs>
    <linearGradient id="surface5small0" x2="0.25" y2="1">
      <stop stop-color="#d85370"/><stop offset="1" stop-color="#942440"/>
    </linearGradient>
  </defs>
  <rect x="100" y="100" width="824" height="824" rx="190" fill="url(#surface5small0)"/>
  <rect x="102" y="102" width="820" height="820" rx="188" fill="none" stroke="#fff" stroke-opacity=".2" stroke-width="4"/>
  <path d="M710 298H418L290 426V468L586 608H314V726H606L734 598V556L438 416H710Z" fill="#fff2ec"/>
</svg>

<text x="1083" y="1095" text-anchor="middle" font-size="13" fill="#b5bfc0">64 px</text>
<svg xmlns="http://www.w3.org/2000/svg" viewBox="0 0 1024 1024" x="1204.0" y="1021.0" width="32" height="32">
  <title>Sik — Cereza</title>
  <defs>
    <linearGradient id="surface5small1" x2="0.25" y2="1">
      <stop stop-color="#d85370"/><stop offset="1" stop-color="#942440"/>
    </linearGradient>
  </defs>
  <rect x="100" y="100" width="824" height="824" rx="190" fill="url(#surface5small1)"/>
  <rect x="102" y="102" width="820" height="820" rx="188" fill="none" stroke="#fff" stroke-opacity=".2" stroke-width="4"/>
  <path d="M710 298H418L290 426V468L586 608H314V726H606L734 598V556L438 416H710Z" fill="#fff2ec"/>
</svg>

<text x="1220" y="1095" text-anchor="middle" font-size="13" fill="#b5bfc0">32 px</text>
<svg xmlns="http://www.w3.org/2000/svg" viewBox="0 0 1024 1024" x="1349.0" y="1029.0" width="16" height="16">
  <title>Sik — Cereza</title>
  <defs>
    <linearGradient id="surface5small2" x2="0.25" y2="1">
      <stop stop-color="#d85370"/><stop offset="1" stop-color="#942440"/>
    </linearGradient>
  </defs>
  <rect x="100" y="100" width="824" height="824" rx="190" fill="url(#surface5small2)"/>
  <rect x="102" y="102" width="820" height="820" rx="188" fill="none" stroke="#fff" stroke-opacity=".2" stroke-width="4"/>
  <path d="M710 298H418L290 426V468L586 608H314V726H606L734 598V556L438 416H710Z" fill="#fff2ec"/>
</svg>

<text x="1357" y="1095" text-anchor="middle" font-size="13" fill="#b5bfc0">16 px</text>
</g></svg>